<svg xmlns="http://www.w3.org/2000/svg" viewBox="0 0 588.61 137.43"><defs><style>.cls-1{fill:#fff;}</style></defs><title>Text White 1x</title><g id="Layer_2" data-name="Layer 2"><g id="Text_White" data-name="Text White"><g id="mark"><path id="m" class="cls-1" d="M167,81.51v46.63c0,4.55-3.17,7.39-8.44,7.39-5.07,0-8.23-2.84-8.23-7.39V81.89c0-19.9-8.65-29.76-25.33-29.76-20.69,0-33.14,13.27-33.14,35.45v40.57c0,4.55-3.17,7.39-8.23,7.39-5.28,0-8.44-2.84-8.44-7.39V81.89c0-19.9-8.44-29.76-25.33-29.76-20.69,0-33.14,13.27-33.14,35.45v40.57c0,4.55-3.17,7.39-8.23,7.39-5.28,0-8.44-2.84-8.44-7.39V47.39C0,42.84,3.17,40,8.44,40c5.07,0,8.23,2.84,8.23,7.39V60.28C23,46.44,36.94,38.1,54.46,38.1c19,0,31,8.91,35.46,26,6.33-16.87,20.9-26,39.69-26C154.31,38.1,167,52.89,167,81.51Z"/><path id="a" class="cls-1" d="M271.36,83.79v44.36c0,4.55-3.17,7.39-8.44,7.39-5.07,0-8.23-2.84-8.23-7.39V115.82c-5.91,13.84-19.63,21.61-37.36,21.61-22.17,0-36.94-11.94-36.94-30.33,0-18.77,13.72-28.62,39.9-28.62,10.77,0,19.21.76,34.41,3.79-.42-22.37-8.87-30.52-32.51-30.52A77.34,77.34,0,0,0,200.44,55a26.66,26.66,0,0,1-5.49.95c-4.43,0-7-2.09-7-6.26,0-2.84,2.32-5.31,6.12-6.82,7.39-3.22,17.52-4.74,28.5-4.74C256.59,38.1,271.36,51.94,271.36,83.79Zm-16.68,9.48v-.95c-14.78-2.46-22.8-3.22-32.09-3.22-16.68,0-25.54,6.07-25.54,17.06,0,10.62,9.92,18.2,24.28,18.2C242.44,124.35,254.69,113,254.69,93.26Z"/><path id="r" class="cls-1" d="M347.25,45.87c0,4.36-3,7-8.23,7-24.28,0-37.58,12.7-37.58,35.45v39.81c0,4.55-3.17,7.39-8.23,7.39-5.28,0-8.44-2.84-8.44-7.39V47.39c0-4.55,3.17-7.39,8.44-7.39,5.07,0,8.23,2.84,8.23,7.39V61.23C308,46.82,321.07,38.86,339,38.86,344.3,38.86,347.25,41.51,347.25,45.87Z"/><path id="k" class="cls-1" d="M447.84,128.52c0,4.36-4.43,7-8.44,7-2.74,0-4.85-1.14-7-3.79l-34.2-43.41-20.9,17.25v22.56c0,4.55-3.17,7.39-8.23,7.39-5.28,0-8.45-2.84-8.45-7.39V7.39c0-4.55,3.17-7.39,8.45-7.39,5.06,0,8.23,2.84,8.23,7.39V85.68l52.56-43.6A9.1,9.1,0,0,1,435.6,40C440,40,444,43.6,444,47.39c0,2.08-1.27,4.17-3.59,5.88l-30.19,25,35.89,45.5A7.27,7.27,0,0,1,447.84,128.52Z"/></g><g id="IT"><path id="I" class="cls-1" d="M481,8.75v118a8.93,8.93,0,0,1-9.09,8.75h0a8.93,8.93,0,0,1-9.09-8.75V8.75A8.93,8.93,0,0,1,471.9,0h0A8.93,8.93,0,0,1,481,8.75Z"/><path id="T" class="cls-1" d="M519.41,14.88H492a7.59,7.59,0,0,1-7.74-7.44h0A7.59,7.59,0,0,1,492,0h88.85a7.59,7.59,0,0,1,7.74,7.44h0a7.59,7.59,0,0,1-7.74,7.44h-27.6a7.59,7.59,0,0,0-7.74,7.44V128.1a7.59,7.59,0,0,1-7.74,7.44h-2.93a7.59,7.59,0,0,1-7.74-7.44V22.32A7.59,7.59,0,0,0,519.41,14.88Z"/></g></g></g></svg>