<svg xmlns="http://www.w3.org/2000/svg" xmlns:xlink="http://www.w3.org/1999/xlink" viewBox="0 0 189.02 190.98"><defs><style>.cls-1{fill:url(#linear-gradient);}.cls-2{fill:url(#linear-gradient-2);}.cls-3{fill:url(#linear-gradient-3);}.cls-4{fill:url(#linear-gradient-4);}.cls-5{fill:url(#linear-gradient-5);}.cls-6{fill:url(#linear-gradient-6);}.cls-7{fill:url(#linear-gradient-7);}.cls-8{fill:url(#linear-gradient-8);}.cls-9{fill:url(#linear-gradient-9);}.cls-10{fill:url(#linear-gradient-10);}.cls-11{fill:url(#linear-gradient-11);}.cls-12{fill:url(#linear-gradient-12);}.cls-13{fill:url(#linear-gradient-13);}.cls-14{fill:url(#linear-gradient-14);}</style><linearGradient id="linear-gradient" x1="141.6" y1="23.71" x2="189.02" y2="23.71" gradientUnits="userSpaceOnUse"><stop offset="0" stop-color="#fff"/><stop offset="0.03" stop-color="#eaeaf5"/><stop offset="0.08" stop-color="#d4d4eb"/><stop offset="0.13" stop-color="#c7c7e4"/><stop offset="0.17" stop-color="#c2c2e2"/><stop offset="0.28" stop-color="#c2c2e2"/><stop offset="0.4" stop-color="#aaabcf"/><stop offset="0.66" stop-color="#6c709d"/><stop offset="0.97" stop-color="#1c245d"/><stop offset="1" stop-color="#364ba0"/><stop offset="1" stop-color="#18215c"/></linearGradient><linearGradient id="linear-gradient-2" x1="0.09" y1="118.69" x2="78.19" y2="118.69" gradientUnits="userSpaceOnUse"><stop offset="0" stop-color="#c2c2e2"/><stop offset="0.28" stop-color="#c2c2e2"/><stop offset="0.4" stop-color="#aaabcf"/><stop offset="0.66" stop-color="#6c709d"/><stop offset="0.97" stop-color="#1c245d"/></linearGradient><linearGradient id="linear-gradient-3" x1="5.76" y1="46.15" x2="146.27" y2="46.15" gradientUnits="userSpaceOnUse"><stop offset="0.17" stop-color="#c2c2e2"/><stop offset="0.28" stop-color="#c2c2e2"/><stop offset="0.4" stop-color="#aaabcf"/><stop offset="0.66" stop-color="#6c709d"/><stop offset="0.97" stop-color="#1c245d"/></linearGradient><linearGradient id="linear-gradient-4" x1="54.29" y1="116.76" x2="178.24" y2="116.76" gradientUnits="userSpaceOnUse"><stop offset="0" stop-color="#fff"/><stop offset="0" stop-color="#fdfdfe"/><stop offset="0.02" stop-color="#e7e7f4"/><stop offset="0.03" stop-color="#d6d6ec"/><stop offset="0.05" stop-color="#cbcbe6"/><stop offset="0.08" stop-color="#c4c4e3"/><stop offset="0.17" stop-color="#c2c2e2"/><stop offset="0.28" stop-color="#c2c2e2"/><stop offset="0.4" stop-color="#aaabcf"/><stop offset="0.66" stop-color="#6c709d"/><stop offset="0.97" stop-color="#1c245d"/></linearGradient><linearGradient id="linear-gradient-5" x1="54.29" y1="166.15" x2="159.24" y2="166.15" xlink:href="#linear-gradient-4"/><linearGradient id="linear-gradient-6" x1="0.09" y1="118.69" x2="78.19" y2="118.69" xlink:href="#linear-gradient-3"/><linearGradient id="linear-gradient-7" x1="54.29" y1="137.29" x2="173.12" y2="137.29" xlink:href="#linear-gradient-3"/><linearGradient id="linear-gradient-8" x1="0" y1="81.97" x2="91.31" y2="81.97" xlink:href="#linear-gradient-4"/><linearGradient id="linear-gradient-9" x1="0.09" y1="118.69" x2="78.19" y2="118.69" xlink:href="#linear-gradient-4"/><linearGradient id="linear-gradient-10" x1="54.96" y1="162.17" x2="105.19" y2="162.17" xlink:href="#linear-gradient-3"/><linearGradient id="linear-gradient-11" x1="57.65" y1="89.26" x2="100.19" y2="89.26" xlink:href="#linear-gradient-4"/><linearGradient id="linear-gradient-12" x1="50.96" y1="46.15" x2="146.27" y2="46.15" gradientUnits="userSpaceOnUse"><stop offset="0" stop-color="#fff"/><stop offset="0.05" stop-color="#eaeaf5"/><stop offset="0.12" stop-color="#cdcde7"/><stop offset="0.17" stop-color="#c2c2e2"/><stop offset="0.28" stop-color="#c2c2e2"/><stop offset="0.4" stop-color="#aaabcf"/><stop offset="0.66" stop-color="#6c709d"/><stop offset="0.97" stop-color="#1c245d"/></linearGradient><linearGradient id="linear-gradient-13" x1="29.77" y1="139.36" x2="109.19" y2="139.36" xlink:href="#linear-gradient-4"/><linearGradient id="linear-gradient-14" x1="103.26" y1="77.87" x2="174.99" y2="77.87" xlink:href="#linear-gradient-4"/></defs><title>Logo 1x</title><g id="Layer_2" data-name="Layer 2"><g id="Logo"><g id="ArrowHead"><path class="cls-1" d="M189,0a211.48,211.48,0,0,0-10.81,31.5v0a130.36,130.36,0,0,0-3.13,15.9L164.39,24.6,141.6,13.91a142.73,142.73,0,0,0,22.7-5A219,219,0,0,0,189,0Z"/></g><g id="Circle"><path class="cls-2" d="M78.19,101.54,20.75,159A88.47,88.47,0,0,1,.09,105.39a112.43,112.43,0,0,1,57.56-27A63,63,0,0,0,78.19,101.54Z"/><path class="cls-3" d="M146.27,33.51l-46.08,46c-2.92-.64-5.87-1.17-8.88-1.55a66,66,0,0,0-39.8-19,65.11,65.11,0,0,0-7.6-.44A67,67,0,0,0,5.76,70.3,89.35,89.35,0,0,1,61.48,17.12a89.11,89.11,0,0,1,84.79,16.39Z"/><path class="cls-4" d="M178.24,101.86a89.09,89.09,0,0,1-123.95,82c.2-.61.44-1.2.67-1.78,7.92-20.63,27-36.11,50.23-39.85a59.16,59.16,0,0,0,4-21.48,55.83,55.83,0,0,0-.56-8,59.44,59.44,0,0,0-5.38-17.91L114.54,83.6l41.05-41.05A88.82,88.82,0,0,1,175,78,87.6,87.6,0,0,1,178.24,101.86Z"/><path class="cls-5" d="M159.24,156.79a89,89,0,0,1-105,27.09c.2-.61.44-1.2.67-1.78,7.92-20.63,27-36.11,50.23-39.85a64.93,64.93,0,0,1,11-.91A66.81,66.81,0,0,1,159.24,156.79Z"/><path class="cls-6" d="M78.19,101.54,20.75,159A88.47,88.47,0,0,1,.09,105.39a112.43,112.43,0,0,1,57.56-27A63,63,0,0,0,78.19,101.54Z"/><path class="cls-7" d="M173.12,131.63A89.09,89.09,0,0,1,54.29,183.88c.2-.61.44-1.2.67-1.78,7.92-20.63,27-36.11,50.23-39.85a59.16,59.16,0,0,0,4-21.48,55.83,55.83,0,0,0-.56-8,59.44,59.44,0,0,0-5.38-17.91L114.54,83.6a112.3,112.3,0,0,1,35.59,20.54A106.46,106.46,0,0,1,173.12,131.63Z"/><path class="cls-8" d="M91.31,78a117.5,117.5,0,0,0-15.49-1,113,113,0,0,0-18.17,1.43,112.43,112.43,0,0,0-57.56,27C0,104.22,0,103,0,101.86A89.08,89.08,0,0,1,5.76,70.3,67,67,0,0,1,43.92,58.56a65.11,65.11,0,0,1,7.6.44A66,66,0,0,1,91.31,78Z"/><path class="cls-9" d="M78.19,101.54,20.75,159A88.47,88.47,0,0,1,.09,105.39a112.43,112.43,0,0,1,57.56-27A63,63,0,0,0,78.19,101.54Z"/><path class="cls-10" d="M105.19,142.24c-7.95,20.6-27,36.09-50.23,39.85C62.88,161.47,81.93,146,105.19,142.24Z"/><path class="cls-11" d="M100.19,79.56l-4,4-18,18A63,63,0,0,1,57.65,78.42,113,113,0,0,1,75.82,77a117.5,117.5,0,0,1,15.49,1C94.32,78.4,97.27,78.92,100.19,79.56Z"/><path class="cls-12" d="M146.27,33.51l-46.08,46c-2.92-.64-5.87-1.17-8.88-1.55a66,66,0,0,0-39.8-19A55.83,55.83,0,0,1,51,51,59.67,59.67,0,0,1,61.48,17.12a89.11,89.11,0,0,1,84.79,16.39Z"/><path class="cls-13" d="M109.19,120.76a59.16,59.16,0,0,1-4,21.48C81.93,146,62.88,161.47,55,182.09c-.23.58-.47,1.17-.67,1.78-1-.38-2-.82-2.92-1.29A87.2,87.2,0,0,1,29.77,168.3L90.11,108l13.15-13.15a59.44,59.44,0,0,1,5.38,17.91A55.83,55.83,0,0,1,109.19,120.76Z"/><path class="cls-14" d="M175,78a63.6,63.6,0,0,1-24.87,26.09,67.24,67.24,0,0,1-33.92,9.06,64.61,64.61,0,0,1-7.57-.44,59.44,59.44,0,0,0-5.38-17.91L114.54,83.6l41.05-41.05A88.82,88.82,0,0,1,175,78Z"/></g></g></g></svg>