<svg xmlns="http://www.w3.org/2000/svg" xmlns:xlink="http://www.w3.org/1999/xlink" viewBox="0 0 588.61 328.41"><defs><style>.cls-1{fill:#262262;}.cls-2{fill:url(#linear-gradient);}.cls-3{fill:url(#linear-gradient-2);}.cls-4{fill:url(#linear-gradient-3);}.cls-5{fill:url(#linear-gradient-4);}.cls-6{fill:url(#linear-gradient-5);}.cls-7{fill:url(#linear-gradient-6);}.cls-8{fill:url(#linear-gradient-7);}.cls-9{fill:url(#linear-gradient-8);}.cls-10{fill:url(#linear-gradient-9);}.cls-11{fill:url(#linear-gradient-10);}.cls-12{fill:url(#linear-gradient-11);}.cls-13{fill:url(#linear-gradient-12);}.cls-14{fill:url(#linear-gradient-13);}.cls-15{fill:url(#linear-gradient-14);}.cls-16{fill:url(#linear-gradient-15);}.cls-17{fill:url(#linear-gradient-16);}</style><linearGradient id="linear-gradient" x1="471.9" y1="190.98" x2="471.9" y2="326.51" gradientUnits="userSpaceOnUse"><stop offset="0.17" stop-color="#c2c2e2"/><stop offset="0.94" stop-color="#c2c2e2"/></linearGradient><linearGradient id="linear-gradient-2" x1="536.45" y1="190.98" x2="536.45" y2="326.51" xlink:href="#linear-gradient"/><linearGradient id="linear-gradient-3" x1="341.39" y1="23.71" x2="388.82" y2="23.71" gradientUnits="userSpaceOnUse"><stop offset="0" stop-color="#fff"/><stop offset="0.03" stop-color="#eaeaf5"/><stop offset="0.08" stop-color="#d4d4eb"/><stop offset="0.13" stop-color="#c7c7e4"/><stop offset="0.17" stop-color="#c2c2e2"/><stop offset="0.28" stop-color="#c2c2e2"/><stop offset="0.4" stop-color="#aaabcf"/><stop offset="0.66" stop-color="#6c709d"/><stop offset="0.97" stop-color="#1c245d"/><stop offset="1" stop-color="#364ba0"/><stop offset="1" stop-color="#18215c"/></linearGradient><linearGradient id="linear-gradient-4" x1="199.89" y1="118.69" x2="277.99" y2="118.69" gradientUnits="userSpaceOnUse"><stop offset="0" stop-color="#c2c2e2"/><stop offset="0.28" stop-color="#c2c2e2"/><stop offset="0.4" stop-color="#aaabcf"/><stop offset="0.66" stop-color="#6c709d"/><stop offset="0.97" stop-color="#1c245d"/></linearGradient><linearGradient id="linear-gradient-5" x1="205.55" y1="46.15" x2="346.07" y2="46.15" gradientUnits="userSpaceOnUse"><stop offset="0.17" stop-color="#c2c2e2"/><stop offset="0.28" stop-color="#c2c2e2"/><stop offset="0.4" stop-color="#aaabcf"/><stop offset="0.66" stop-color="#6c709d"/><stop offset="0.97" stop-color="#1c245d"/></linearGradient><linearGradient id="linear-gradient-6" x1="254.09" y1="116.76" x2="378.03" y2="116.76" gradientUnits="userSpaceOnUse"><stop offset="0" stop-color="#fff"/><stop offset="0" stop-color="#fdfdfe"/><stop offset="0.02" stop-color="#e7e7f4"/><stop offset="0.03" stop-color="#d6d6ec"/><stop offset="0.05" stop-color="#cbcbe6"/><stop offset="0.08" stop-color="#c4c4e3"/><stop offset="0.17" stop-color="#c2c2e2"/><stop offset="0.28" stop-color="#c2c2e2"/><stop offset="0.4" stop-color="#aaabcf"/><stop offset="0.66" stop-color="#6c709d"/><stop offset="0.97" stop-color="#1c245d"/></linearGradient><linearGradient id="linear-gradient-7" x1="254.09" y1="166.15" x2="359.04" y2="166.15" xlink:href="#linear-gradient-6"/><linearGradient id="linear-gradient-8" x1="199.89" y1="118.69" x2="277.99" y2="118.69" xlink:href="#linear-gradient-5"/><linearGradient id="linear-gradient-9" x1="254.09" y1="137.29" x2="372.92" y2="137.29" xlink:href="#linear-gradient-5"/><linearGradient id="linear-gradient-10" x1="199.8" y1="81.97" x2="291.11" y2="81.97" xlink:href="#linear-gradient-6"/><linearGradient id="linear-gradient-11" x1="199.89" y1="118.69" x2="277.99" y2="118.69" xlink:href="#linear-gradient-6"/><linearGradient id="linear-gradient-12" x1="254.76" y1="162.17" x2="304.99" y2="162.17" xlink:href="#linear-gradient-5"/><linearGradient id="linear-gradient-13" x1="257.45" y1="89.26" x2="299.99" y2="89.26" xlink:href="#linear-gradient-6"/><linearGradient id="linear-gradient-14" x1="250.76" y1="46.15" x2="346.07" y2="46.15" gradientUnits="userSpaceOnUse"><stop offset="0" stop-color="#fff"/><stop offset="0.05" stop-color="#eaeaf5"/><stop offset="0.12" stop-color="#cdcde7"/><stop offset="0.17" stop-color="#c2c2e2"/><stop offset="0.28" stop-color="#c2c2e2"/><stop offset="0.4" stop-color="#aaabcf"/><stop offset="0.66" stop-color="#6c709d"/><stop offset="0.97" stop-color="#1c245d"/></linearGradient><linearGradient id="linear-gradient-15" x1="229.57" y1="139.36" x2="308.99" y2="139.36" xlink:href="#linear-gradient-6"/><linearGradient id="linear-gradient-16" x1="303.06" y1="77.87" x2="374.79" y2="77.87" xlink:href="#linear-gradient-6"/></defs><title>Full Top 1x</title><g id="Layer_2" data-name="Layer 2"><g id="Text"><g id="mark"><path id="m" class="cls-1" d="M167,272.49v46.63c0,4.55-3.17,7.39-8.44,7.39-5.07,0-8.23-2.84-8.23-7.39V272.87c0-19.9-8.65-29.76-25.33-29.76-20.69,0-33.14,13.27-33.14,35.45v40.57c0,4.55-3.17,7.39-8.23,7.39-5.28,0-8.44-2.84-8.44-7.39V272.87c0-19.9-8.44-29.76-25.33-29.76-20.69,0-33.14,13.27-33.14,35.45v40.57c0,4.55-3.17,7.39-8.23,7.39-5.28,0-8.44-2.84-8.44-7.39V238.37C0,233.82,3.17,231,8.44,231c5.07,0,8.23,2.84,8.23,7.39v12.89c6.33-13.84,20.27-22.18,37.79-22.18,19,0,31,8.91,35.46,26,6.33-16.87,20.9-26,39.69-26C154.31,229.08,167,243.87,167,272.49Z"/><path id="a" class="cls-1" d="M271.36,274.76v44.36c0,4.55-3.17,7.39-8.44,7.39-5.07,0-8.23-2.84-8.23-7.39V306.8c-5.91,13.84-19.63,21.61-37.36,21.61-22.17,0-36.94-11.94-36.94-30.33,0-18.77,13.72-28.62,39.9-28.62,10.77,0,19.21.76,34.41,3.79-.42-22.37-8.87-30.52-32.51-30.52a77.34,77.34,0,0,0-21.74,3.22,26.66,26.66,0,0,1-5.49.95c-4.43,0-7-2.09-7-6.26,0-2.84,2.32-5.31,6.12-6.82,7.39-3.22,17.52-4.74,28.5-4.74C256.59,229.08,271.36,242.92,271.36,274.76Zm-16.68,9.48v-.95c-14.78-2.46-22.8-3.22-32.09-3.22-16.68,0-25.54,6.07-25.54,17.06,0,10.62,9.92,18.2,24.28,18.2C242.44,315.33,254.69,304,254.69,284.24Z"/><path id="r" class="cls-1" d="M347.25,236.85c0,4.36-3,7-8.23,7-24.28,0-37.58,12.7-37.58,35.45v39.81c0,4.55-3.17,7.39-8.23,7.39-5.28,0-8.44-2.84-8.44-7.39V238.37c0-4.55,3.17-7.39,8.44-7.39,5.07,0,8.23,2.84,8.23,7.39v13.84C308,237.8,321.07,229.84,339,229.84,344.3,229.84,347.25,232.49,347.25,236.85Z"/><path id="k" class="cls-1" d="M447.84,319.5c0,4.36-4.43,7-8.44,7-2.74,0-4.85-1.14-7-3.79l-34.2-43.41-20.9,17.25v22.56c0,4.55-3.17,7.39-8.23,7.39-5.28,0-8.45-2.84-8.45-7.39V198.37c0-4.55,3.17-7.39,8.45-7.39,5.06,0,8.23,2.84,8.23,7.39v78.29l52.56-43.6a9.1,9.1,0,0,1,5.7-2.08c4.43,0,8.44,3.6,8.44,7.39,0,2.08-1.27,4.17-3.59,5.88l-30.19,25,35.89,45.5A7.27,7.27,0,0,1,447.84,319.5Z"/></g><g id="IT"><path id="I" class="cls-2" d="M481,199.72v118a8.93,8.93,0,0,1-9.09,8.75h0a8.93,8.93,0,0,1-9.09-8.75v-118A8.93,8.93,0,0,1,471.9,191h0A8.93,8.93,0,0,1,481,199.72Z"/><path id="T" class="cls-3" d="M519.41,205.86H492a7.59,7.59,0,0,1-7.74-7.44h0A7.59,7.59,0,0,1,492,191h88.85a7.59,7.59,0,0,1,7.74,7.44h0a7.59,7.59,0,0,1-7.74,7.44h-27.6a7.59,7.59,0,0,0-7.74,7.44V319.07a7.59,7.59,0,0,1-7.74,7.44h-2.93a7.59,7.59,0,0,1-7.74-7.44V213.3A7.59,7.59,0,0,0,519.41,205.86Z"/></g></g><g id="Logo"><g id="ArrowHead"><path class="cls-4" d="M388.82,0A211.48,211.48,0,0,0,378,31.5v0a130.36,130.36,0,0,0-3.13,15.9L364.18,24.6,341.39,13.91a142.73,142.73,0,0,0,22.7-5A219,219,0,0,0,388.82,0Z"/></g><g id="Circle"><path class="cls-5" d="M278,101.54,220.54,159a88.47,88.47,0,0,1-20.66-53.56,112.43,112.43,0,0,1,57.56-27A63,63,0,0,0,278,101.54Z"/><path class="cls-6" d="M346.07,33.51,300,79.56c-2.92-.64-5.87-1.17-8.88-1.55a66,66,0,0,0-39.8-19,65.11,65.11,0,0,0-7.6-.44A67,67,0,0,0,205.55,70.3a89.35,89.35,0,0,1,55.72-53.18,89.11,89.11,0,0,1,84.79,16.39Z"/><path class="cls-7" d="M378,101.86a89.09,89.09,0,0,1-123.95,82c.2-.61.44-1.2.67-1.78,7.92-20.63,27-36.11,50.23-39.85a59.16,59.16,0,0,0,4-21.48,55.83,55.83,0,0,0-.56-8,59.44,59.44,0,0,0-5.38-17.91L314.34,83.6l41.05-41.05A88.82,88.82,0,0,1,374.79,78,87.6,87.6,0,0,1,378,101.86Z"/><path class="cls-8" d="M359,156.79a89,89,0,0,1-105,27.09c.2-.61.44-1.2.67-1.78,7.92-20.63,27-36.11,50.23-39.85a64.93,64.93,0,0,1,11-.91A66.81,66.81,0,0,1,359,156.79Z"/><path class="cls-9" d="M278,101.54,220.54,159a88.47,88.47,0,0,1-20.66-53.56,112.43,112.43,0,0,1,57.56-27A63,63,0,0,0,278,101.54Z"/><path class="cls-10" d="M372.92,131.63a89.09,89.09,0,0,1-118.83,52.24c.2-.61.44-1.2.67-1.78,7.92-20.63,27-36.11,50.23-39.85a59.16,59.16,0,0,0,4-21.48,55.83,55.83,0,0,0-.56-8,59.44,59.44,0,0,0-5.38-17.91L314.34,83.6a112.3,112.3,0,0,1,35.59,20.54A106.46,106.46,0,0,1,372.92,131.63Z"/><path class="cls-11" d="M291.11,78a117.5,117.5,0,0,0-15.49-1,114.95,114.95,0,0,0-75.74,28.4c-.06-1.17-.09-2.37-.09-3.54a89.08,89.08,0,0,1,5.76-31.56,67,67,0,0,1,38.16-11.75,65.11,65.11,0,0,1,7.6.44A66,66,0,0,1,291.11,78Z"/><path class="cls-12" d="M278,101.54,220.54,159a88.47,88.47,0,0,1-20.66-53.56,112.43,112.43,0,0,1,57.56-27A63,63,0,0,0,278,101.54Z"/><path class="cls-13" d="M305,142.24c-7.95,20.6-27,36.09-50.23,39.85C262.68,161.47,281.73,146,305,142.24Z"/><path class="cls-14" d="M300,79.56l-4,4-18,18a63,63,0,0,1-20.54-23.11A113,113,0,0,1,275.62,77a117.5,117.5,0,0,1,15.49,1C294.12,78.4,297.07,78.92,300,79.56Z"/><path class="cls-15" d="M346.07,33.51,300,79.56c-2.92-.64-5.87-1.17-8.88-1.55a66,66,0,0,0-39.8-19,55.83,55.83,0,0,1-.56-8,59.67,59.67,0,0,1,10.52-33.86,89.11,89.11,0,0,1,84.79,16.39Z"/><path class="cls-16" d="M309,120.76a59.16,59.16,0,0,1-4,21.48c-23.26,3.74-42.31,19.23-50.23,39.85-.23.58-.47,1.17-.67,1.78-1-.38-2-.82-2.92-1.29a87.2,87.2,0,0,1-21.59-14.29L289.91,108l13.15-13.15a59.44,59.44,0,0,1,5.38,17.91A55.83,55.83,0,0,1,309,120.76Z"/><path class="cls-17" d="M374.79,78a63.6,63.6,0,0,1-24.87,26.09A67.24,67.24,0,0,1,316,113.2a64.61,64.61,0,0,1-7.57-.44,59.44,59.44,0,0,0-5.38-17.91L314.34,83.6l41.05-41.05A88.82,88.82,0,0,1,374.79,78Z"/></g></g></g></svg>